<svg width="649" height="668" viewBox="0 0 649 668" fill="none" xmlns="http://www.w3.org/2000/svg">
<path d="M339.521 66.236V336.18L180.827 117.753C229.173 83.1509 280.015 66.6373 339.521 66.236Z" fill="#B8D581" stroke="#161616" stroke-width="4.45706" stroke-miterlimit="10"/>
<path d="M177.222 120.374L338.143 341.868L77.7492 426.494C41.3131 311.473 80.1192 192.058 177.222 120.374Z" fill="#B2E258" stroke="#161616" stroke-width="4.45706" stroke-miterlimit="10"/>
<path d="M79.1252 430.734L329.053 349.509L116.463 503.962C99.6223 480.455 88.2224 458.136 79.1252 430.734Z" fill="#EDC700" stroke="#161616" stroke-width="4.45706" stroke-miterlimit="10"/>
<path d="M119.082 507.568L337.51 348.874L254.055 605.663C197.629 586.923 154.336 555.443 119.082 507.568Z" fill="#F9D85B" stroke="#161616" stroke-width="4.45706" stroke-miterlimit="10"/>
<path d="M258.294 607.039L343.18 345.848L604.307 430.733C556.466 574.12 402.355 652.613 258.294 607.039Z" fill="#3B9974" stroke="#161616" stroke-width="4.45706" stroke-miterlimit="10"/>
<path d="M605.748 426.557L343.978 341.42V66.2373C495.863 67.4348 618.624 190.935 618.624 343.103C618.624 372.963 614.708 398.268 605.748 426.557Z" fill="#768F48" stroke="#161616" stroke-width="4.45706" stroke-miterlimit="10"/>
<path d="M594.655 344.795C594.655 485.846 480.509 600.184 339.711 600.184C198.913 600.184 84.7675 485.846 84.7675 344.795C84.7675 203.743 198.913 89.4053 339.711 89.4053C480.509 89.4053 594.655 203.743 594.655 344.795Z" fill="#161616" stroke="#161616" stroke-width="4.45706" stroke-miterlimit="10"/>
<path d="M542.953 344.794C542.953 457.293 451.954 548.482 339.711 548.482C227.468 548.482 136.469 457.293 136.469 344.794C136.469 232.296 227.468 141.107 339.711 141.107C451.954 141.107 542.953 232.296 542.953 344.794Z" fill="url(#paint0_radial_41_237)" stroke="#161616" stroke-width="4.45706" stroke-miterlimit="10"/>
<path d="M339.711 466.918C406.912 466.918 461.389 412.242 461.389 344.795C461.389 277.348 406.912 222.671 339.711 222.671C272.51 222.671 218.033 277.348 218.033 344.795C218.033 412.242 272.51 466.918 339.711 466.918Z" fill="#B32E14"/>
<path d="M295.096 308.848V310.032H292.056V320H290.6V310.032H287.544V308.848H295.096ZM300.712 320.144C299.891 320.144 299.144 319.957 298.472 319.584C297.811 319.211 297.288 318.683 296.904 318C296.531 317.307 296.344 316.507 296.344 315.6C296.344 314.704 296.536 313.915 296.92 313.232C297.315 312.539 297.848 312.011 298.52 311.648C299.192 311.275 299.944 311.088 300.776 311.088C301.608 311.088 302.36 311.275 303.032 311.648C303.704 312.011 304.232 312.533 304.616 313.216C305.011 313.899 305.208 314.693 305.208 315.6C305.208 316.507 305.006 317.307 304.6 318C304.206 318.683 303.667 319.211 302.984 319.584C302.302 319.957 301.544 320.144 300.712 320.144ZM300.712 318.864C301.235 318.864 301.726 318.741 302.184 318.496C302.643 318.251 303.011 317.883 303.288 317.392C303.576 316.901 303.72 316.304 303.72 315.6C303.72 314.896 303.582 314.299 303.304 313.808C303.027 313.317 302.664 312.955 302.216 312.72C301.768 312.475 301.283 312.352 300.76 312.352C300.227 312.352 299.736 312.475 299.288 312.72C298.851 312.955 298.499 313.317 298.232 313.808C297.966 314.299 297.832 314.896 297.832 315.6C297.832 316.315 297.96 316.917 298.216 317.408C298.483 317.899 298.835 318.267 299.272 318.512C299.71 318.747 300.19 318.864 300.712 318.864ZM308.899 312.432V317.6C308.899 318.027 308.989 318.331 309.171 318.512C309.352 318.683 309.667 318.768 310.115 318.768H311.187V320H309.875C309.064 320 308.456 319.813 308.051 319.44C307.645 319.067 307.443 318.453 307.443 317.6V312.432H306.307V311.232H307.443V309.024H308.899V311.232H311.187V312.432H308.899ZM312.407 315.584C312.407 314.688 312.588 313.904 312.951 313.232C313.313 312.549 313.809 312.021 314.439 311.648C315.079 311.275 315.788 311.088 316.567 311.088C317.335 311.088 318.001 311.253 318.567 311.584C319.132 311.915 319.553 312.331 319.831 312.832V311.232H321.303V320H319.831V318.368C319.543 318.88 319.111 319.307 318.535 319.648C317.969 319.979 317.308 320.144 316.551 320.144C315.772 320.144 315.068 319.952 314.439 319.568C313.809 319.184 313.313 318.645 312.951 317.952C312.588 317.259 312.407 316.469 312.407 315.584ZM319.831 315.6C319.831 314.939 319.697 314.363 319.431 313.872C319.164 313.381 318.801 313.008 318.343 312.752C317.895 312.485 317.399 312.352 316.855 312.352C316.311 312.352 315.815 312.48 315.367 312.736C314.919 312.992 314.561 313.365 314.295 313.856C314.028 314.347 313.895 314.923 313.895 315.584C313.895 316.256 314.028 316.843 314.295 317.344C314.561 317.835 314.919 318.213 315.367 318.48C315.815 318.736 316.311 318.864 316.855 318.864C317.399 318.864 317.895 318.736 318.343 318.48C318.801 318.213 319.164 317.835 319.431 317.344C319.697 316.843 319.831 316.261 319.831 315.6ZM325.219 308.16V320H323.763V308.16H325.219ZM335.502 320.112C334.766 320.112 334.105 319.984 333.518 319.728C332.942 319.461 332.489 319.099 332.158 318.64C331.828 318.171 331.657 317.632 331.646 317.024H333.198C333.252 317.547 333.465 317.989 333.838 318.352C334.222 318.704 334.777 318.88 335.502 318.88C336.196 318.88 336.74 318.709 337.134 318.368C337.54 318.016 337.742 317.568 337.742 317.024C337.742 316.597 337.625 316.251 337.39 315.984C337.156 315.717 336.862 315.515 336.51 315.376C336.158 315.237 335.684 315.088 335.086 314.928C334.35 314.736 333.758 314.544 333.31 314.352C332.873 314.16 332.494 313.861 332.174 313.456C331.865 313.04 331.71 312.485 331.71 311.792C331.71 311.184 331.865 310.645 332.174 310.176C332.484 309.707 332.916 309.344 333.47 309.088C334.036 308.832 334.681 308.704 335.406 308.704C336.452 308.704 337.305 308.965 337.966 309.488C338.638 310.011 339.017 310.704 339.102 311.568H337.502C337.449 311.141 337.225 310.768 336.83 310.448C336.436 310.117 335.913 309.952 335.262 309.952C334.654 309.952 334.158 310.112 333.774 310.432C333.39 310.741 333.198 311.179 333.198 311.744C333.198 312.149 333.31 312.48 333.534 312.736C333.769 312.992 334.052 313.189 334.382 313.328C334.724 313.456 335.198 313.605 335.806 313.776C336.542 313.979 337.134 314.181 337.582 314.384C338.03 314.576 338.414 314.88 338.734 315.296C339.054 315.701 339.214 316.256 339.214 316.96C339.214 317.504 339.07 318.016 338.782 318.496C338.494 318.976 338.068 319.365 337.502 319.664C336.937 319.963 336.27 320.112 335.502 320.112ZM349.133 311.232V320H347.677V318.704C347.4 319.152 347.01 319.504 346.509 319.76C346.018 320.005 345.474 320.128 344.877 320.128C344.194 320.128 343.581 319.989 343.037 319.712C342.493 319.424 342.061 318.997 341.741 318.432C341.432 317.867 341.277 317.179 341.277 316.368V311.232H342.717V316.176C342.717 317.04 342.936 317.707 343.373 318.176C343.81 318.635 344.408 318.864 345.165 318.864C345.944 318.864 346.557 318.624 347.005 318.144C347.453 317.664 347.677 316.965 347.677 316.048V311.232H349.133ZM353.047 312.848C353.335 312.347 353.762 311.931 354.327 311.6C354.903 311.259 355.57 311.088 356.327 311.088C357.106 311.088 357.81 311.275 358.439 311.648C359.079 312.021 359.581 312.549 359.943 313.232C360.306 313.904 360.487 314.688 360.487 315.584C360.487 316.469 360.306 317.259 359.943 317.952C359.581 318.645 359.079 319.184 358.439 319.568C357.81 319.952 357.106 320.144 356.327 320.144C355.581 320.144 354.919 319.979 354.343 319.648C353.778 319.307 353.346 318.885 353.047 318.384V324.16H351.591V311.232H353.047V312.848ZM358.999 315.584C358.999 314.923 358.866 314.347 358.599 313.856C358.333 313.365 357.97 312.992 357.511 312.736C357.063 312.48 356.567 312.352 356.023 312.352C355.49 312.352 354.994 312.485 354.535 312.752C354.087 313.008 353.725 313.387 353.447 313.888C353.181 314.379 353.047 314.949 353.047 315.6C353.047 316.261 353.181 316.843 353.447 317.344C353.725 317.835 354.087 318.213 354.535 318.48C354.994 318.736 355.49 318.864 356.023 318.864C356.567 318.864 357.063 318.736 357.511 318.48C357.97 318.213 358.333 317.835 358.599 317.344C358.866 316.843 358.999 316.256 358.999 315.584ZM363.86 312.848C364.148 312.347 364.575 311.931 365.14 311.6C365.716 311.259 366.383 311.088 367.14 311.088C367.919 311.088 368.623 311.275 369.252 311.648C369.892 312.021 370.393 312.549 370.756 313.232C371.119 313.904 371.3 314.688 371.3 315.584C371.3 316.469 371.119 317.259 370.756 317.952C370.393 318.645 369.892 319.184 369.252 319.568C368.623 319.952 367.919 320.144 367.14 320.144C366.393 320.144 365.732 319.979 365.156 319.648C364.591 319.307 364.159 318.885 363.86 318.384V324.16H362.404V311.232H363.86V312.848ZM369.812 315.584C369.812 314.923 369.679 314.347 369.412 313.856C369.145 313.365 368.783 312.992 368.324 312.736C367.876 312.48 367.38 312.352 366.836 312.352C366.303 312.352 365.807 312.485 365.348 312.752C364.9 313.008 364.537 313.387 364.26 313.888C363.993 314.379 363.86 314.949 363.86 315.6C363.86 316.261 363.993 316.843 364.26 317.344C364.537 317.835 364.9 318.213 365.348 318.48C365.807 318.736 366.303 318.864 366.836 318.864C367.38 318.864 367.876 318.736 368.324 318.48C368.783 318.213 369.145 317.835 369.412 317.344C369.679 316.843 369.812 316.256 369.812 315.584ZM374.672 308.16V320H373.216V308.16H374.672ZM384.706 311.232L379.426 324.128H377.922L379.65 319.904L376.114 311.232H377.73L380.482 318.336L383.202 311.232H384.706Z" fill="white"/>
<path d="M263.329 338.989H253.657V343.267C254.07 342.812 254.649 342.44 255.393 342.151C256.137 341.862 256.943 341.717 257.811 341.717C259.361 341.717 260.642 342.068 261.655 342.771C262.688 343.474 263.443 344.383 263.918 345.499C264.393 346.615 264.631 347.824 264.631 349.126C264.631 351.544 263.949 353.466 262.585 354.892C261.221 356.297 259.299 357 256.819 357C255.166 357 253.729 356.721 252.51 356.163C251.291 355.584 250.35 354.789 249.689 353.776C249.028 352.763 248.666 351.596 248.604 350.273H253.781C253.905 350.914 254.205 351.451 254.68 351.885C255.155 352.298 255.806 352.505 256.633 352.505C257.604 352.505 258.328 352.195 258.803 351.575C259.278 350.955 259.516 350.128 259.516 349.095C259.516 348.082 259.268 347.307 258.772 346.77C258.276 346.233 257.553 345.964 256.602 345.964C255.899 345.964 255.321 346.14 254.866 346.491C254.411 346.822 254.112 347.266 253.967 347.824H248.852V334.339H263.329V338.989ZM267.557 345.375C267.557 341.82 268.239 339.02 269.603 336.974C270.988 334.928 273.209 333.905 276.268 333.905C279.327 333.905 281.538 334.928 282.902 336.974C284.287 339.02 284.979 341.82 284.979 345.375C284.979 348.971 284.287 351.792 282.902 353.838C281.538 355.884 279.327 356.907 276.268 356.907C273.209 356.907 270.988 355.884 269.603 353.838C268.239 351.792 267.557 348.971 267.557 345.375ZM279.771 345.375C279.771 343.288 279.544 341.686 279.089 340.57C278.634 339.433 277.694 338.865 276.268 338.865C274.842 338.865 273.902 339.433 273.447 340.57C272.992 341.686 272.765 343.288 272.765 345.375C272.765 346.78 272.848 347.948 273.013 348.878C273.178 349.787 273.509 350.531 274.005 351.11C274.522 351.668 275.276 351.947 276.268 351.947C277.26 351.947 278.004 351.668 278.5 351.11C279.017 350.531 279.358 349.787 279.523 348.878C279.688 347.948 279.771 346.78 279.771 345.375ZM294.011 352.102L290.57 360.999H287.191L288.989 352.102H294.011ZM296.68 345.375C296.68 341.82 297.362 339.02 298.726 336.974C300.111 334.928 302.332 333.905 305.391 333.905C308.45 333.905 310.661 334.928 312.025 336.974C313.41 339.02 314.102 341.82 314.102 345.375C314.102 348.971 313.41 351.792 312.025 353.838C310.661 355.884 308.45 356.907 305.391 356.907C302.332 356.907 300.111 355.884 298.726 353.838C297.362 351.792 296.68 348.971 296.68 345.375ZM308.894 345.375C308.894 343.288 308.667 341.686 308.212 340.57C307.757 339.433 306.817 338.865 305.391 338.865C303.965 338.865 303.025 339.433 302.57 340.57C302.115 341.686 301.888 343.288 301.888 345.375C301.888 346.78 301.971 347.948 302.136 348.878C302.301 349.787 302.632 350.531 303.128 351.11C303.645 351.668 304.399 351.947 305.391 351.947C306.383 351.947 307.127 351.668 307.623 351.11C308.14 350.531 308.481 349.787 308.646 348.878C308.811 347.948 308.894 346.78 308.894 345.375ZM316.903 345.375C316.903 341.82 317.585 339.02 318.949 336.974C320.333 334.928 322.555 333.905 325.614 333.905C328.672 333.905 330.884 334.928 332.248 336.974C333.632 339.02 334.325 341.82 334.325 345.375C334.325 348.971 333.632 351.792 332.248 353.838C330.884 355.884 328.672 356.907 325.614 356.907C322.555 356.907 320.333 355.884 318.949 353.838C317.585 351.792 316.903 348.971 316.903 345.375ZM329.117 345.375C329.117 343.288 328.889 341.686 328.435 340.57C327.98 339.433 327.04 338.865 325.614 338.865C324.188 338.865 323.247 339.433 322.793 340.57C322.338 341.686 322.111 343.288 322.111 345.375C322.111 346.78 322.193 347.948 322.359 348.878C322.524 349.787 322.855 350.531 323.351 351.11C323.867 351.668 324.622 351.947 325.614 351.947C326.606 351.947 327.35 351.668 327.846 351.11C328.362 350.531 328.703 349.787 328.869 348.878C329.034 347.948 329.117 346.78 329.117 345.375ZM337.125 345.375C337.125 341.82 337.807 339.02 339.171 336.974C340.556 334.928 342.778 333.905 345.836 333.905C348.895 333.905 351.106 334.928 352.47 336.974C353.855 339.02 354.547 341.82 354.547 345.375C354.547 348.971 353.855 351.792 352.47 353.838C351.106 355.884 348.895 356.907 345.836 356.907C342.778 356.907 340.556 355.884 339.171 353.838C337.807 351.792 337.125 348.971 337.125 345.375ZM349.339 345.375C349.339 343.288 349.112 341.686 348.657 340.57C348.203 339.433 347.262 338.865 345.836 338.865C344.41 338.865 343.47 339.433 343.015 340.57C342.561 341.686 342.333 343.288 342.333 345.375C342.333 346.78 342.416 347.948 342.581 348.878C342.747 349.787 343.077 350.531 343.573 351.11C344.09 351.668 344.844 351.947 345.836 351.947C346.828 351.947 347.572 351.668 348.068 351.11C348.585 350.531 348.926 349.787 349.091 348.878C349.257 347.948 349.339 346.78 349.339 345.375ZM363.579 352.102L360.138 360.999H356.759L358.557 352.102H363.579ZM366.249 345.375C366.249 341.82 366.931 339.02 368.295 336.974C369.679 334.928 371.901 333.905 374.96 333.905C378.018 333.905 380.23 334.928 381.594 336.974C382.978 339.02 383.671 341.82 383.671 345.375C383.671 348.971 382.978 351.792 381.594 353.838C380.23 355.884 378.018 356.907 374.96 356.907C371.901 356.907 369.679 355.884 368.295 353.838C366.931 351.792 366.249 348.971 366.249 345.375ZM378.463 345.375C378.463 343.288 378.235 341.686 377.781 340.57C377.326 339.433 376.386 338.865 374.96 338.865C373.534 338.865 372.593 339.433 372.139 340.57C371.684 341.686 371.457 343.288 371.457 345.375C371.457 346.78 371.539 347.948 371.705 348.878C371.87 349.787 372.201 350.531 372.697 351.11C373.213 351.668 373.968 351.947 374.96 351.947C375.952 351.947 376.696 351.668 377.192 351.11C377.708 350.531 378.049 349.787 378.215 348.878C378.38 347.948 378.463 346.78 378.463 345.375ZM386.471 345.375C386.471 341.82 387.153 339.02 388.517 336.974C389.902 334.928 392.124 333.905 395.182 333.905C398.241 333.905 400.452 334.928 401.816 336.974C403.201 339.02 403.893 341.82 403.893 345.375C403.893 348.971 403.201 351.792 401.816 353.838C400.452 355.884 398.241 356.907 395.182 356.907C392.124 356.907 389.902 355.884 388.517 353.838C387.153 351.792 386.471 348.971 386.471 345.375ZM398.685 345.375C398.685 343.288 398.458 341.686 398.003 340.57C397.549 339.433 396.608 338.865 395.182 338.865C393.756 338.865 392.816 339.433 392.361 340.57C391.907 341.686 391.679 343.288 391.679 345.375C391.679 346.78 391.762 347.948 391.927 348.878C392.093 349.787 392.423 350.531 392.919 351.11C393.436 351.668 394.19 351.947 395.182 351.947C396.174 351.947 396.918 351.668 397.414 351.11C397.931 350.531 398.272 349.787 398.437 348.878C398.603 347.948 398.685 346.78 398.685 345.375ZM406.694 345.375C406.694 341.82 407.376 339.02 408.74 336.974C410.124 334.928 412.346 333.905 415.405 333.905C418.463 333.905 420.675 334.928 422.039 336.974C423.423 339.02 424.116 341.82 424.116 345.375C424.116 348.971 423.423 351.792 422.039 353.838C420.675 355.884 418.463 356.907 415.405 356.907C412.346 356.907 410.124 355.884 408.74 353.838C407.376 351.792 406.694 348.971 406.694 345.375ZM418.908 345.375C418.908 343.288 418.68 341.686 418.226 340.57C417.771 339.433 416.831 338.865 415.405 338.865C413.979 338.865 413.038 339.433 412.584 340.57C412.129 341.686 411.902 343.288 411.902 345.375C411.902 346.78 411.984 347.948 412.15 348.878C412.315 349.787 412.646 350.531 413.142 351.11C413.658 351.668 414.413 351.947 415.405 351.947C416.397 351.947 417.141 351.668 417.637 351.11C418.153 350.531 418.494 349.787 418.66 348.878C418.825 347.948 418.908 346.78 418.908 345.375Z" fill="white"/>
<path d="M316.096 372.848V374.032H313.056V384H311.6V374.032H308.544V372.848H316.096ZM321.712 384.144C320.891 384.144 320.144 383.957 319.472 383.584C318.811 383.211 318.288 382.683 317.904 382C317.531 381.307 317.344 380.507 317.344 379.6C317.344 378.704 317.536 377.915 317.92 377.232C318.315 376.539 318.848 376.011 319.52 375.648C320.192 375.275 320.944 375.088 321.776 375.088C322.608 375.088 323.36 375.275 324.032 375.648C324.704 376.011 325.232 376.533 325.616 377.216C326.011 377.899 326.208 378.693 326.208 379.6C326.208 380.507 326.006 381.307 325.6 382C325.206 382.683 324.667 383.211 323.984 383.584C323.302 383.957 322.544 384.144 321.712 384.144ZM321.712 382.864C322.235 382.864 322.726 382.741 323.184 382.496C323.643 382.251 324.011 381.883 324.288 381.392C324.576 380.901 324.72 380.304 324.72 379.6C324.72 378.896 324.582 378.299 324.304 377.808C324.027 377.317 323.664 376.955 323.216 376.72C322.768 376.475 322.283 376.352 321.76 376.352C321.227 376.352 320.736 376.475 320.288 376.72C319.851 376.955 319.499 377.317 319.232 377.808C318.966 378.299 318.832 378.896 318.832 379.6C318.832 380.315 318.96 380.917 319.216 381.408C319.483 381.899 319.835 382.267 320.272 382.512C320.71 382.747 321.19 382.864 321.712 382.864ZM333.019 384L329.579 380.128V384H328.123V372.16H329.579V379.12L332.955 375.232H334.987L330.859 379.6L335.003 384H333.019ZM344.357 379.28C344.357 379.557 344.341 379.851 344.309 380.16H337.301C337.354 381.024 337.648 381.701 338.181 382.192C338.725 382.672 339.381 382.912 340.149 382.912C340.778 382.912 341.301 382.768 341.717 382.48C342.144 382.181 342.442 381.787 342.613 381.296H344.181C343.946 382.139 343.477 382.827 342.773 383.36C342.069 383.883 341.194 384.144 340.149 384.144C339.317 384.144 338.57 383.957 337.909 383.584C337.258 383.211 336.746 382.683 336.373 382C336 381.307 335.813 380.507 335.813 379.6C335.813 378.693 335.994 377.899 336.357 377.216C336.72 376.533 337.226 376.011 337.877 375.648C338.538 375.275 339.296 375.088 340.149 375.088C340.981 375.088 341.717 375.269 342.357 375.632C342.997 375.995 343.488 376.496 343.829 377.136C344.181 377.765 344.357 378.48 344.357 379.28ZM342.853 378.976C342.853 378.421 342.73 377.947 342.485 377.552C342.24 377.147 341.904 376.843 341.477 376.64C341.061 376.427 340.597 376.32 340.085 376.32C339.349 376.32 338.72 376.555 338.197 377.024C337.685 377.493 337.392 378.144 337.317 378.976H342.853ZM350.551 375.072C351.618 375.072 352.482 375.397 353.143 376.048C353.804 376.688 354.135 377.616 354.135 378.832V384H352.695V379.04C352.695 378.165 352.476 377.499 352.039 377.04C351.602 376.571 351.004 376.336 350.247 376.336C349.479 376.336 348.866 376.576 348.407 377.056C347.959 377.536 347.735 378.235 347.735 379.152V384H346.279V375.232H347.735V376.48C348.023 376.032 348.412 375.685 348.903 375.44C349.404 375.195 349.954 375.072 350.551 375.072ZM359.617 384.144C358.945 384.144 358.343 384.032 357.809 383.808C357.276 383.573 356.855 383.253 356.545 382.848C356.236 382.432 356.065 381.957 356.033 381.424H357.537C357.58 381.861 357.783 382.219 358.145 382.496C358.519 382.773 359.004 382.912 359.601 382.912C360.156 382.912 360.593 382.789 360.913 382.544C361.233 382.299 361.393 381.989 361.393 381.616C361.393 381.232 361.223 380.949 360.881 380.768C360.54 380.576 360.012 380.389 359.297 380.208C358.647 380.037 358.113 379.867 357.697 379.696C357.292 379.515 356.94 379.253 356.641 378.912C356.353 378.56 356.209 378.101 356.209 377.536C356.209 377.088 356.343 376.677 356.609 376.304C356.876 375.931 357.255 375.637 357.745 375.424C358.236 375.2 358.796 375.088 359.425 375.088C360.396 375.088 361.18 375.333 361.777 375.824C362.375 376.315 362.695 376.987 362.737 377.84H361.281C361.249 377.381 361.063 377.013 360.721 376.736C360.391 376.459 359.943 376.32 359.377 376.32C358.855 376.32 358.439 376.432 358.129 376.656C357.82 376.88 357.665 377.173 357.665 377.536C357.665 377.824 357.756 378.064 357.937 378.256C358.129 378.437 358.364 378.587 358.641 378.704C358.929 378.811 359.324 378.933 359.825 379.072C360.455 379.243 360.967 379.413 361.361 379.584C361.756 379.744 362.092 379.989 362.369 380.32C362.657 380.651 362.807 381.083 362.817 381.616C362.817 382.096 362.684 382.528 362.417 382.912C362.151 383.296 361.772 383.6 361.281 383.824C360.801 384.037 360.247 384.144 359.617 384.144Z" fill="white"/>
<path d="M531.581 86.756C531.664 84.5447 532.387 82.8397 533.751 81.641C535.115 80.4423 536.965 79.843 539.3 79.843C540.85 79.843 542.173 80.1117 543.268 80.649C544.384 81.1863 545.221 81.92 545.779 82.85C546.358 83.78 546.647 84.8237 546.647 85.981C546.647 87.345 546.306 88.461 545.624 89.329C544.942 90.1763 544.146 90.755 543.237 91.065V91.189C544.415 91.5817 545.345 92.2327 546.027 93.142C546.709 94.0513 547.05 95.219 547.05 96.645C547.05 97.9263 546.75 99.063 546.151 100.055C545.572 101.026 544.715 101.791 543.578 102.349C542.462 102.907 541.129 103.186 539.579 103.186C537.099 103.186 535.115 102.576 533.627 101.357C532.16 100.138 531.385 98.2983 531.302 95.839H536.448C536.469 96.7483 536.727 97.4717 537.223 98.009C537.719 98.5257 538.442 98.784 539.393 98.784C540.199 98.784 540.819 98.5567 541.253 98.102C541.708 97.6267 541.935 97.0067 541.935 96.242C541.935 95.25 541.615 94.537 540.974 94.103C540.354 93.6483 539.352 93.421 537.967 93.421H536.975V89.112H537.967C539.021 89.112 539.868 88.9363 540.509 88.585C541.17 88.213 541.501 87.562 541.501 86.632C541.501 85.888 541.294 85.3093 540.881 84.896C540.468 84.4827 539.899 84.276 539.176 84.276C538.391 84.276 537.802 84.5137 537.409 84.989C537.037 85.4643 536.82 86.0533 536.758 86.756H531.581ZM550.165 91.375C550.165 87.8203 550.847 85.02 552.211 82.974C553.595 80.928 555.817 79.905 558.876 79.905C561.934 79.905 564.146 80.928 565.51 82.974C566.894 85.02 567.587 87.8203 567.587 91.375C567.587 94.971 566.894 97.792 565.51 99.838C564.146 101.884 561.934 102.907 558.876 102.907C555.817 102.907 553.595 101.884 552.211 99.838C550.847 97.792 550.165 94.971 550.165 91.375ZM562.379 91.375C562.379 89.2877 562.151 87.686 561.697 86.57C561.242 85.4333 560.302 84.865 558.876 84.865C557.45 84.865 556.509 85.4333 556.055 86.57C555.6 87.686 555.373 89.2877 555.373 91.375C555.373 92.7803 555.455 93.948 555.621 94.878C555.786 95.7873 556.117 96.5313 556.613 97.11C557.129 97.668 557.884 97.947 558.876 97.947C559.868 97.947 560.612 97.668 561.108 97.11C561.624 96.5313 561.965 95.7873 562.131 94.878C562.296 93.948 562.379 92.7803 562.379 91.375ZM569.953 86.074C569.953 84.4 570.429 83.1083 571.379 82.199C572.351 81.2897 573.601 80.835 575.13 80.835C576.66 80.835 577.9 81.2897 578.85 82.199C579.801 83.1083 580.276 84.4 580.276 86.074C580.276 87.748 579.801 89.0397 578.85 89.949C577.9 90.8583 576.66 91.313 575.13 91.313C573.601 91.313 572.351 90.8583 571.379 89.949C570.429 89.0397 569.953 87.748 569.953 86.074ZM591.002 81.176L579.067 103H573.952L585.887 81.176H591.002ZM575.099 83.935C574.107 83.935 573.611 84.648 573.611 86.074C573.611 87.4793 574.107 88.182 575.099 88.182C575.575 88.182 575.947 88.0063 576.215 87.655C576.484 87.3037 576.618 86.7767 576.618 86.074C576.618 84.648 576.112 83.935 575.099 83.935ZM584.709 98.102C584.709 96.428 585.185 95.1363 586.135 94.227C587.086 93.3177 588.326 92.863 589.855 92.863C591.385 92.863 592.625 93.3177 593.575 94.227C594.526 95.1363 595.001 96.428 595.001 98.102C595.001 99.776 594.526 101.068 593.575 101.977C592.625 102.886 591.385 103.341 589.855 103.341C588.326 103.341 587.086 102.886 586.135 101.977C585.185 101.068 584.709 99.776 584.709 98.102ZM589.824 95.963C589.349 95.963 588.977 96.1387 588.708 96.49C588.46 96.8413 588.336 97.3787 588.336 98.102C588.336 99.5073 588.832 100.21 589.824 100.21C590.3 100.21 590.672 100.034 590.94 99.683C591.209 99.3317 591.343 98.8047 591.343 98.102C591.343 97.3993 591.209 96.8723 590.94 96.521C590.672 96.149 590.3 95.963 589.824 95.963Z" fill="white"/>
<path d="M530.86 124.02C530.86 122.66 531.167 121.44 531.78 120.36C532.393 119.267 533.227 118.413 534.28 117.8C535.347 117.187 536.527 116.88 537.82 116.88C539.34 116.88 540.667 117.247 541.8 117.98C542.933 118.713 543.76 119.753 544.28 121.1H542.1C541.713 120.26 541.153 119.613 540.42 119.16C539.7 118.707 538.833 118.48 537.82 118.48C536.847 118.48 535.973 118.707 535.2 119.16C534.427 119.613 533.82 120.26 533.38 121.1C532.94 121.927 532.72 122.9 532.72 124.02C532.72 125.127 532.94 126.1 533.38 126.94C533.82 127.767 534.427 128.407 535.2 128.86C535.973 129.313 536.847 129.54 537.82 129.54C538.833 129.54 539.7 129.32 540.42 128.88C541.153 128.427 541.713 127.78 542.1 126.94H544.28C543.76 128.273 542.933 129.307 541.8 130.04C540.667 130.76 539.34 131.12 537.82 131.12C536.527 131.12 535.347 130.82 534.28 130.22C533.227 129.607 532.393 128.76 531.78 127.68C531.167 126.6 530.86 125.38 530.86 124.02ZM551.769 131.18C550.743 131.18 549.809 130.947 548.969 130.48C548.143 130.013 547.489 129.353 547.009 128.5C546.543 127.633 546.309 126.633 546.309 125.5C546.309 124.38 546.549 123.393 547.029 122.54C547.523 121.673 548.189 121.013 549.029 120.56C549.869 120.093 550.809 119.86 551.849 119.86C552.889 119.86 553.829 120.093 554.669 120.56C555.509 121.013 556.169 121.667 556.649 122.52C557.143 123.373 557.389 124.367 557.389 125.5C557.389 126.633 557.136 127.633 556.629 128.5C556.136 129.353 555.463 130.013 554.609 130.48C553.756 130.947 552.809 131.18 551.769 131.18ZM551.769 129.58C552.423 129.58 553.036 129.427 553.609 129.12C554.183 128.813 554.643 128.353 554.989 127.74C555.349 127.127 555.529 126.38 555.529 125.5C555.529 124.62 555.356 123.873 555.009 123.26C554.663 122.647 554.209 122.193 553.649 121.9C553.089 121.593 552.483 121.44 551.829 121.44C551.163 121.44 550.549 121.593 549.989 121.9C549.443 122.193 549.003 122.647 548.669 123.26C548.336 123.873 548.169 124.62 548.169 125.5C548.169 126.393 548.329 127.147 548.649 127.76C548.983 128.373 549.423 128.833 549.969 129.14C550.516 129.433 551.116 129.58 551.769 129.58ZM572.962 119.84C573.816 119.84 574.576 120.02 575.242 120.38C575.909 120.727 576.436 121.253 576.822 121.96C577.209 122.667 577.402 123.527 577.402 124.54V131H575.602V124.8C575.602 123.707 575.329 122.873 574.782 122.3C574.249 121.713 573.522 121.42 572.602 121.42C571.656 121.42 570.902 121.727 570.342 122.34C569.782 122.94 569.502 123.813 569.502 124.96V131H567.702V124.8C567.702 123.707 567.429 122.873 566.882 122.3C566.349 121.713 565.622 121.42 564.702 121.42C563.756 121.42 563.002 121.727 562.442 122.34C561.882 122.94 561.602 123.813 561.602 124.96V131H559.782V120.04H561.602V121.62C561.962 121.047 562.442 120.607 563.042 120.3C563.656 119.993 564.329 119.84 565.062 119.84C565.982 119.84 566.796 120.047 567.502 120.46C568.209 120.873 568.736 121.48 569.082 122.28C569.389 121.507 569.896 120.907 570.602 120.48C571.309 120.053 572.096 119.84 572.962 119.84ZM593.568 119.84C594.421 119.84 595.181 120.02 595.848 120.38C596.514 120.727 597.041 121.253 597.428 121.96C597.814 122.667 598.008 123.527 598.008 124.54V131H596.208V124.8C596.208 123.707 595.934 122.873 595.388 122.3C594.854 121.713 594.128 121.42 593.208 121.42C592.261 121.42 591.508 121.727 590.948 122.34C590.388 122.94 590.108 123.813 590.108 124.96V131H588.308V124.8C588.308 123.707 588.034 122.873 587.488 122.3C586.954 121.713 586.228 121.42 585.308 121.42C584.361 121.42 583.608 121.727 583.048 122.34C582.488 122.94 582.208 123.813 582.208 124.96V131H580.388V120.04H582.208V121.62C582.568 121.047 583.048 120.607 583.648 120.3C584.261 119.993 584.934 119.84 585.668 119.84C586.588 119.84 587.401 120.047 588.108 120.46C588.814 120.873 589.341 121.48 589.688 122.28C589.994 121.507 590.501 120.907 591.208 120.48C591.914 120.053 592.701 119.84 593.568 119.84ZM610.713 120.04V131H608.893V129.38C608.546 129.94 608.06 130.38 607.433 130.7C606.82 131.007 606.14 131.16 605.393 131.16C604.54 131.16 603.773 130.987 603.093 130.64C602.413 130.28 601.873 129.747 601.473 129.04C601.086 128.333 600.893 127.473 600.893 126.46V120.04H602.693V126.22C602.693 127.3 602.966 128.133 603.513 128.72C604.06 129.293 604.806 129.58 605.753 129.58C606.726 129.58 607.493 129.28 608.053 128.68C608.613 128.08 608.893 127.207 608.893 126.06V120.04H610.713ZM619.126 119.84C620.459 119.84 621.539 120.247 622.366 121.06C623.193 121.86 623.606 123.02 623.606 124.54V131H621.806V124.8C621.806 123.707 621.533 122.873 620.986 122.3C620.439 121.713 619.693 121.42 618.746 121.42C617.786 121.42 617.019 121.72 616.446 122.32C615.886 122.92 615.606 123.793 615.606 124.94V131H613.786V120.04H615.606V121.6C615.966 121.04 616.453 120.607 617.066 120.3C617.693 119.993 618.379 119.84 619.126 119.84ZM627.519 118.26C627.172 118.26 626.879 118.14 626.639 117.9C626.399 117.66 626.279 117.367 626.279 117.02C626.279 116.673 626.399 116.38 626.639 116.14C626.879 115.9 627.172 115.78 627.519 115.78C627.852 115.78 628.132 115.9 628.359 116.14C628.599 116.38 628.719 116.673 628.719 117.02C628.719 117.367 628.599 117.66 628.359 117.9C628.132 118.14 627.852 118.26 627.519 118.26ZM628.399 120.04V131H626.579V120.04H628.399ZM633.721 121.54V128C633.721 128.533 633.834 128.913 634.061 129.14C634.288 129.353 634.681 129.46 635.241 129.46H636.581V131H634.941C633.928 131 633.168 130.767 632.661 130.3C632.154 129.833 631.901 129.067 631.901 128V121.54H630.481V120.04H631.901V117.28H633.721V120.04H636.581V121.54H633.721ZM648.226 120.04L641.626 136.16H639.746L641.906 130.88L637.486 120.04H639.506L642.946 128.92L646.346 120.04H648.226Z" fill="#818181"/>
<path d="M480.209 629.753C480.912 629.195 481.232 628.937 481.17 628.978C483.195 627.304 484.787 625.93 485.944 624.855C487.122 623.78 488.114 622.654 488.92 621.476C489.726 620.298 490.129 619.151 490.129 618.035C490.129 617.188 489.933 616.526 489.54 616.051C489.147 615.576 488.558 615.338 487.773 615.338C486.988 615.338 486.368 615.638 485.913 616.237C485.479 616.816 485.262 617.642 485.262 618.717H480.147C480.188 616.96 480.56 615.493 481.263 614.315C481.986 613.137 482.927 612.269 484.084 611.711C485.262 611.153 486.564 610.874 487.99 610.874C490.449 610.874 492.299 611.504 493.539 612.765C494.8 614.026 495.43 615.669 495.43 617.694C495.43 619.905 494.676 621.962 493.167 623.863C491.658 625.744 489.736 627.583 487.401 629.381H495.771V633.69H480.209V629.753ZM514.039 615.989H504.367V620.267C504.78 619.812 505.359 619.44 506.103 619.151C506.847 618.862 507.653 618.717 508.521 618.717C510.071 618.717 511.352 619.068 512.365 619.771C513.398 620.474 514.153 621.383 514.628 622.499C515.103 623.615 515.341 624.824 515.341 626.126C515.341 628.544 514.659 630.466 513.295 631.892C511.931 633.297 510.009 634 507.529 634C505.876 634 504.439 633.721 503.22 633.163C502.001 632.584 501.06 631.789 500.399 630.776C499.738 629.763 499.376 628.596 499.314 627.273H504.491C504.615 627.914 504.915 628.451 505.39 628.885C505.865 629.298 506.516 629.505 507.343 629.505C508.314 629.505 509.038 629.195 509.513 628.575C509.988 627.955 510.226 627.128 510.226 626.095C510.226 625.082 509.978 624.307 509.482 623.77C508.986 623.233 508.263 622.964 507.312 622.964C506.609 622.964 506.031 623.14 505.576 623.491C505.121 623.822 504.822 624.266 504.677 624.824H499.562V611.339H514.039V615.989ZM517.833 617.074C517.833 615.4 518.308 614.108 519.259 613.199C520.23 612.29 521.481 611.835 523.01 611.835C524.539 611.835 525.779 612.29 526.73 613.199C527.681 614.108 528.156 615.4 528.156 617.074C528.156 618.748 527.681 620.04 526.73 620.949C525.779 621.858 524.539 622.313 523.01 622.313C521.481 622.313 520.23 621.858 519.259 620.949C518.308 620.04 517.833 618.748 517.833 617.074ZM538.882 612.176L526.947 634H521.832L533.767 612.176H538.882ZM522.979 614.935C521.987 614.935 521.491 615.648 521.491 617.074C521.491 618.479 521.987 619.182 522.979 619.182C523.454 619.182 523.826 619.006 524.095 618.655C524.364 618.304 524.498 617.777 524.498 617.074C524.498 615.648 523.992 614.935 522.979 614.935ZM532.589 629.102C532.589 627.428 533.064 626.136 534.015 625.227C534.966 624.318 536.206 623.863 537.735 623.863C539.264 623.863 540.504 624.318 541.455 625.227C542.406 626.136 542.881 627.428 542.881 629.102C542.881 630.776 542.406 632.068 541.455 632.977C540.504 633.886 539.264 634.341 537.735 634.341C536.206 634.341 534.966 633.886 534.015 632.977C533.064 632.068 532.589 630.776 532.589 629.102ZM537.704 626.963C537.229 626.963 536.857 627.139 536.588 627.49C536.34 627.841 536.216 628.379 536.216 629.102C536.216 630.507 536.712 631.21 537.704 631.21C538.179 631.21 538.551 631.034 538.82 630.683C539.089 630.332 539.223 629.805 539.223 629.102C539.223 628.399 539.089 627.872 538.82 627.521C538.551 627.149 538.179 626.963 537.704 626.963Z" fill="white"/>
<path d="M489.86 652.14C489.86 653.3 489.46 654.267 488.66 655.04C487.873 655.8 486.667 656.18 485.04 656.18H482.36V662H480.54V648.06H485.04C486.613 648.06 487.807 648.44 488.62 649.2C489.447 649.96 489.86 650.94 489.86 652.14ZM485.04 654.68C486.053 654.68 486.8 654.46 487.28 654.02C487.76 653.58 488 652.953 488 652.14C488 650.42 487.013 649.56 485.04 649.56H482.36V654.68H485.04ZM493.942 647.2V662H492.122V647.2H493.942ZM496.364 656.48C496.364 655.36 496.591 654.38 497.044 653.54C497.497 652.687 498.117 652.027 498.904 651.56C499.704 651.093 500.591 650.86 501.564 650.86C502.524 650.86 503.357 651.067 504.064 651.48C504.771 651.893 505.297 652.413 505.644 653.04V651.04H507.484V662H505.644V659.96C505.284 660.6 504.744 661.133 504.024 661.56C503.317 661.973 502.491 662.18 501.544 662.18C500.571 662.18 499.691 661.94 498.904 661.46C498.117 660.98 497.497 660.307 497.044 659.44C496.591 658.573 496.364 657.587 496.364 656.48ZM505.644 656.5C505.644 655.673 505.477 654.953 505.144 654.34C504.811 653.727 504.357 653.26 503.784 652.94C503.224 652.607 502.604 652.44 501.924 652.44C501.244 652.44 500.624 652.6 500.064 652.92C499.504 653.24 499.057 653.707 498.724 654.32C498.391 654.933 498.224 655.653 498.224 656.48C498.224 657.32 498.391 658.053 498.724 658.68C499.057 659.293 499.504 659.767 500.064 660.1C500.624 660.42 501.244 660.58 501.924 660.58C502.604 660.58 503.224 660.42 503.784 660.1C504.357 659.767 504.811 659.293 505.144 658.68C505.477 658.053 505.644 657.327 505.644 656.5ZM520 651.04L513.4 667.16H511.52L513.68 661.88L509.26 651.04H511.28L514.72 659.92L518.12 651.04H520ZM529.381 652.54V659C529.381 659.533 529.494 659.913 529.721 660.14C529.948 660.353 530.341 660.46 530.901 660.46H532.241V662H530.601C529.588 662 528.828 661.767 528.321 661.3C527.814 660.833 527.561 660.067 527.561 659V652.54H526.141V651.04H527.561V648.28H529.381V651.04H532.241V652.54H529.381ZM539.226 662.18C538.2 662.18 537.266 661.947 536.426 661.48C535.6 661.013 534.946 660.353 534.466 659.5C534 658.633 533.766 657.633 533.766 656.5C533.766 655.38 534.006 654.393 534.486 653.54C534.98 652.673 535.646 652.013 536.486 651.56C537.326 651.093 538.266 650.86 539.306 650.86C540.346 650.86 541.286 651.093 542.126 651.56C542.966 652.013 543.626 652.667 544.106 653.52C544.6 654.373 544.846 655.367 544.846 656.5C544.846 657.633 544.593 658.633 544.086 659.5C543.593 660.353 542.92 661.013 542.066 661.48C541.213 661.947 540.266 662.18 539.226 662.18ZM539.226 660.58C539.88 660.58 540.493 660.427 541.066 660.12C541.64 659.813 542.1 659.353 542.446 658.74C542.806 658.127 542.986 657.38 542.986 656.5C542.986 655.62 542.813 654.873 542.466 654.26C542.12 653.647 541.666 653.193 541.106 652.9C540.546 652.593 539.94 652.44 539.286 652.44C538.62 652.44 538.006 652.593 537.446 652.9C536.9 653.193 536.46 653.647 536.126 654.26C535.793 654.873 535.626 655.62 535.626 656.5C535.626 657.393 535.786 658.147 536.106 658.76C536.44 659.373 536.88 659.833 537.426 660.14C537.973 660.433 538.573 660.58 539.226 660.58ZM554.391 649.54V654.2H559.471V655.7H554.391V660.5H560.071V662H552.571V648.04H560.071V649.54H554.391ZM562.145 656.48C562.145 655.36 562.372 654.38 562.825 653.54C563.278 652.687 563.898 652.027 564.685 651.56C565.485 651.093 566.372 650.86 567.345 650.86C568.305 650.86 569.138 651.067 569.845 651.48C570.552 651.893 571.078 652.413 571.425 653.04V651.04H573.265V662H571.425V659.96C571.065 660.6 570.525 661.133 569.805 661.56C569.098 661.973 568.272 662.18 567.325 662.18C566.352 662.18 565.472 661.94 564.685 661.46C563.898 660.98 563.278 660.307 562.825 659.44C562.372 658.573 562.145 657.587 562.145 656.48ZM571.425 656.5C571.425 655.673 571.258 654.953 570.925 654.34C570.592 653.727 570.138 653.26 569.565 652.94C569.005 652.607 568.385 652.44 567.705 652.44C567.025 652.44 566.405 652.6 565.845 652.92C565.285 653.24 564.838 653.707 564.505 654.32C564.172 654.933 564.005 655.653 564.005 656.48C564.005 657.32 564.172 658.053 564.505 658.68C564.838 659.293 565.285 659.767 565.845 660.1C566.405 660.42 567.025 660.58 567.705 660.58C568.385 660.58 569.005 660.42 569.565 660.1C570.138 659.767 570.592 659.293 570.925 658.68C571.258 658.053 571.425 657.327 571.425 656.5ZM578.161 652.82C578.481 652.193 578.934 651.707 579.521 651.36C580.121 651.013 580.847 650.84 581.701 650.84V652.72H581.221C579.181 652.72 578.161 653.827 578.161 656.04V662H576.341V651.04H578.161V652.82ZM589.142 650.84C590.475 650.84 591.555 651.247 592.382 652.06C593.208 652.86 593.622 654.02 593.622 655.54V662H591.822V655.8C591.822 654.707 591.548 653.873 591.002 653.3C590.455 652.713 589.708 652.42 588.762 652.42C587.802 652.42 587.035 652.72 586.462 653.32C585.902 653.92 585.622 654.793 585.622 655.94V662H583.802V651.04H585.622V652.6C585.982 652.04 586.468 651.607 587.082 651.3C587.708 650.993 588.395 650.84 589.142 650.84Z" fill="#818181"/>
<path d="M117.837 589.299V584.37H126.424V607H120.906V589.299H117.837ZM130.05 595.375C130.05 591.82 130.732 589.02 132.096 586.974C133.481 584.928 135.703 583.905 138.761 583.905C141.82 583.905 144.031 584.928 145.395 586.974C146.78 589.02 147.472 591.82 147.472 595.375C147.472 598.971 146.78 601.792 145.395 603.838C144.031 605.884 141.82 606.907 138.761 606.907C135.703 606.907 133.481 605.884 132.096 603.838C130.732 601.792 130.05 598.971 130.05 595.375ZM142.264 595.375C142.264 593.288 142.037 591.686 141.582 590.57C141.128 589.433 140.187 588.865 138.761 588.865C137.335 588.865 136.395 589.433 135.94 590.57C135.486 591.686 135.258 593.288 135.258 595.375C135.258 596.78 135.341 597.948 135.506 598.878C135.672 599.787 136.002 600.531 136.498 601.11C137.015 601.668 137.769 601.947 138.761 601.947C139.753 601.947 140.497 601.668 140.993 601.11C141.51 600.531 141.851 599.787 142.016 598.878C142.182 597.948 142.264 596.78 142.264 595.375ZM149.839 590.074C149.839 588.4 150.314 587.108 151.265 586.199C152.236 585.29 153.487 584.835 155.016 584.835C156.545 584.835 157.785 585.29 158.736 586.199C159.687 587.108 160.162 588.4 160.162 590.074C160.162 591.748 159.687 593.04 158.736 593.949C157.785 594.858 156.545 595.313 155.016 595.313C153.487 595.313 152.236 594.858 151.265 593.949C150.314 593.04 149.839 591.748 149.839 590.074ZM170.888 585.176L158.953 607H153.838L165.773 585.176H170.888ZM154.985 587.935C153.993 587.935 153.497 588.648 153.497 590.074C153.497 591.479 153.993 592.182 154.985 592.182C155.46 592.182 155.832 592.006 156.101 591.655C156.37 591.304 156.504 590.777 156.504 590.074C156.504 588.648 155.998 587.935 154.985 587.935ZM164.595 602.102C164.595 600.428 165.07 599.136 166.021 598.227C166.972 597.318 168.212 596.863 169.741 596.863C171.27 596.863 172.51 597.318 173.461 598.227C174.412 599.136 174.887 600.428 174.887 602.102C174.887 603.776 174.412 605.068 173.461 605.977C172.51 606.886 171.27 607.341 169.741 607.341C168.212 607.341 166.972 606.886 166.021 605.977C165.07 605.068 164.595 603.776 164.595 602.102ZM169.71 599.963C169.235 599.963 168.863 600.139 168.594 600.49C168.346 600.841 168.222 601.379 168.222 602.102C168.222 603.507 168.718 604.21 169.71 604.21C170.185 604.21 170.557 604.034 170.826 603.683C171.095 603.332 171.229 602.805 171.229 602.102C171.229 601.399 171.095 600.872 170.826 600.521C170.557 600.149 170.185 599.963 169.71 599.963Z" fill="white"/>
<path d="M127.12 621.06V622.54H123.32V635H121.5V622.54H117.68V621.06H127.12ZM139.36 629.1C139.36 629.447 139.34 629.813 139.3 630.2H130.54C130.607 631.28 130.974 632.127 131.64 632.74C132.32 633.34 133.14 633.64 134.1 633.64C134.887 633.64 135.54 633.46 136.06 633.1C136.594 632.727 136.967 632.233 137.18 631.62H139.14C138.847 632.673 138.26 633.533 137.38 634.2C136.5 634.853 135.407 635.18 134.1 635.18C133.06 635.18 132.127 634.947 131.3 634.48C130.487 634.013 129.847 633.353 129.38 632.5C128.914 631.633 128.68 630.633 128.68 629.5C128.68 628.367 128.907 627.373 129.36 626.52C129.814 625.667 130.447 625.013 131.26 624.56C132.087 624.093 133.034 623.86 134.1 623.86C135.14 623.86 136.06 624.087 136.86 624.54C137.66 624.993 138.274 625.62 138.7 626.42C139.14 627.207 139.36 628.1 139.36 629.1ZM137.48 628.72C137.48 628.027 137.327 627.433 137.02 626.94C136.714 626.433 136.294 626.053 135.76 625.8C135.24 625.533 134.66 625.4 134.02 625.4C133.1 625.4 132.314 625.693 131.66 626.28C131.02 626.867 130.654 627.68 130.56 628.72H137.48ZM141.083 629.48C141.083 628.36 141.309 627.38 141.763 626.54C142.216 625.687 142.836 625.027 143.623 624.56C144.423 624.093 145.309 623.86 146.283 623.86C147.243 623.86 148.076 624.067 148.783 624.48C149.489 624.893 150.016 625.413 150.363 626.04V624.04H152.203V635H150.363V632.96C150.003 633.6 149.463 634.133 148.743 634.56C148.036 634.973 147.209 635.18 146.263 635.18C145.289 635.18 144.409 634.94 143.623 634.46C142.836 633.98 142.216 633.307 141.763 632.44C141.309 631.573 141.083 630.587 141.083 629.48ZM150.363 629.5C150.363 628.673 150.196 627.953 149.863 627.34C149.529 626.727 149.076 626.26 148.503 625.94C147.943 625.607 147.323 625.44 146.643 625.44C145.963 625.44 145.343 625.6 144.783 625.92C144.223 626.24 143.776 626.707 143.443 627.32C143.109 627.933 142.943 628.653 142.943 629.48C142.943 630.32 143.109 631.053 143.443 631.68C143.776 632.293 144.223 632.767 144.783 633.1C145.343 633.42 145.963 633.58 146.643 633.58C147.323 633.58 147.943 633.42 148.503 633.1C149.076 632.767 149.529 632.293 149.863 631.68C150.196 631.053 150.363 630.327 150.363 629.5ZM168.458 623.84C169.312 623.84 170.072 624.02 170.738 624.38C171.405 624.727 171.932 625.253 172.318 625.96C172.705 626.667 172.898 627.527 172.898 628.54V635H171.098V628.8C171.098 627.707 170.825 626.873 170.278 626.3C169.745 625.713 169.018 625.42 168.098 625.42C167.152 625.42 166.398 625.727 165.838 626.34C165.278 626.94 164.998 627.813 164.998 628.96V635H163.198V628.8C163.198 627.707 162.925 626.873 162.378 626.3C161.845 625.713 161.118 625.42 160.198 625.42C159.252 625.42 158.498 625.727 157.938 626.34C157.378 626.94 157.098 627.813 157.098 628.96V635H155.278V624.04H157.098V625.62C157.458 625.047 157.938 624.607 158.538 624.3C159.152 623.993 159.825 623.84 160.558 623.84C161.478 623.84 162.292 624.047 162.998 624.46C163.705 624.873 164.232 625.48 164.578 626.28C164.885 625.507 165.392 624.907 166.098 624.48C166.805 624.053 167.592 623.84 168.458 623.84Z" fill="#818181"/>
<path d="M23.329 460.989H13.657V465.267C14.0703 464.812 14.649 464.44 15.393 464.151C16.137 463.862 16.943 463.717 17.811 463.717C19.361 463.717 20.6423 464.068 21.655 464.771C22.6883 465.474 23.4427 466.383 23.918 467.499C24.3933 468.615 24.631 469.824 24.631 471.126C24.631 473.544 23.949 475.466 22.585 476.892C21.221 478.297 19.299 479 16.819 479C15.1657 479 13.7293 478.721 12.51 478.163C11.2907 477.584 10.3503 476.789 9.689 475.776C9.02767 474.763 8.666 473.596 8.604 472.273H13.781C13.905 472.914 14.2047 473.451 14.68 473.885C15.1553 474.298 15.8063 474.505 16.633 474.505C17.6043 474.505 18.3277 474.195 18.803 473.575C19.2783 472.955 19.516 472.128 19.516 471.095C19.516 470.082 19.268 469.307 18.772 468.77C18.276 468.233 17.5527 467.964 16.602 467.964C15.8993 467.964 15.3207 468.14 14.866 468.491C14.4113 468.822 14.1117 469.266 13.967 469.824H8.852V456.339H23.329V460.989ZM27.1231 462.074C27.1231 460.4 27.5984 459.108 28.5491 458.199C29.5204 457.29 30.7708 456.835 32.3001 456.835C33.8294 456.835 35.0694 457.29 36.0201 458.199C36.9708 459.108 37.4461 460.4 37.4461 462.074C37.4461 463.748 36.9708 465.04 36.0201 465.949C35.0694 466.858 33.8294 467.313 32.3001 467.313C30.7708 467.313 29.5204 466.858 28.5491 465.949C27.5984 465.04 27.1231 463.748 27.1231 462.074ZM48.1721 457.176L36.2371 479H31.1221L43.0571 457.176H48.1721ZM32.2691 459.935C31.2771 459.935 30.7811 460.648 30.7811 462.074C30.7811 463.479 31.2771 464.182 32.2691 464.182C32.7444 464.182 33.1164 464.006 33.3851 463.655C33.6538 463.304 33.7881 462.777 33.7881 462.074C33.7881 460.648 33.2818 459.935 32.2691 459.935ZM41.8791 474.102C41.8791 472.428 42.3544 471.136 43.3051 470.227C44.2558 469.318 45.4958 468.863 47.0251 468.863C48.5544 468.863 49.7944 469.318 50.7451 470.227C51.6958 471.136 52.1711 472.428 52.1711 474.102C52.1711 475.776 51.6958 477.068 50.7451 477.977C49.7944 478.886 48.5544 479.341 47.0251 479.341C45.4958 479.341 44.2558 478.886 43.3051 477.977C42.3544 477.068 41.8791 475.776 41.8791 474.102ZM46.9941 471.963C46.5188 471.963 46.1468 472.139 45.8781 472.49C45.6301 472.841 45.5061 473.379 45.5061 474.102C45.5061 475.507 46.0021 476.21 46.9941 476.21C47.4694 476.21 47.8414 476.034 48.1101 475.683C48.3788 475.332 48.5131 474.805 48.5131 474.102C48.5131 473.399 48.3788 472.872 48.1101 472.521C47.8414 472.149 47.4694 471.963 46.9941 471.963Z" fill="white"/>
<path d="M15.78 503.9H9.7L8.58 507H6.66L11.7 493.14H13.8L18.82 507H16.9L15.78 503.9ZM15.26 502.42L12.74 495.38L10.22 502.42H15.26ZM20.3366 501.48C20.3366 500.36 20.5632 499.38 21.0166 498.54C21.4699 497.687 22.0899 497.027 22.8766 496.56C23.6766 496.093 24.5699 495.86 25.5566 495.86C26.4099 495.86 27.2032 496.06 27.9366 496.46C28.6699 496.847 29.2299 497.36 29.6166 498V492.2H31.4566V507H29.6166V504.94C29.2566 505.593 28.7232 506.133 28.0166 506.56C27.3099 506.973 26.4832 507.18 25.5366 507.18C24.5632 507.18 23.6766 506.94 22.8766 506.46C22.0899 505.98 21.4699 505.307 21.0166 504.44C20.5632 503.573 20.3366 502.587 20.3366 501.48ZM29.6166 501.5C29.6166 500.673 29.4499 499.953 29.1166 499.34C28.7832 498.727 28.3299 498.26 27.7566 497.94C27.1966 497.607 26.5766 497.44 25.8966 497.44C25.2166 497.44 24.5966 497.6 24.0366 497.92C23.4766 498.24 23.0299 498.707 22.6966 499.32C22.3632 499.933 22.1966 500.653 22.1966 501.48C22.1966 502.32 22.3632 503.053 22.6966 503.68C23.0299 504.293 23.4766 504.767 24.0366 505.1C24.5966 505.42 25.2166 505.58 25.8966 505.58C26.5766 505.58 27.1966 505.42 27.7566 505.1C28.3299 504.767 28.7832 504.293 29.1166 503.68C29.4499 503.053 29.6166 502.327 29.6166 501.5ZM38.6122 505.32L42.0122 496.04H43.9522L39.6522 507H37.5322L33.2322 496.04H35.1922L38.6122 505.32ZM46.6831 494.26C46.3365 494.26 46.0431 494.14 45.8031 493.9C45.5631 493.66 45.4431 493.367 45.4431 493.02C45.4431 492.673 45.5631 492.38 45.8031 492.14C46.0431 491.9 46.3365 491.78 46.6831 491.78C47.0165 491.78 47.2965 491.9 47.5231 492.14C47.7631 492.38 47.8831 492.673 47.8831 493.02C47.8831 493.367 47.7631 493.66 47.5231 493.9C47.2965 494.14 47.0165 494.26 46.6831 494.26ZM47.5631 496.04V507H45.7431V496.04H47.5631ZM54.545 507.18C53.705 507.18 52.9517 507.04 52.285 506.76C51.6183 506.467 51.0917 506.067 50.705 505.56C50.3183 505.04 50.105 504.447 50.065 503.78H51.945C51.9983 504.327 52.2517 504.773 52.705 505.12C53.1717 505.467 53.7783 505.64 54.525 505.64C55.2183 505.64 55.765 505.487 56.165 505.18C56.565 504.873 56.765 504.487 56.765 504.02C56.765 503.54 56.5517 503.187 56.125 502.96C55.6983 502.72 55.0383 502.487 54.145 502.26C53.3317 502.047 52.665 501.833 52.145 501.62C51.6383 501.393 51.1983 501.067 50.825 500.64C50.465 500.2 50.285 499.627 50.285 498.92C50.285 498.36 50.4517 497.847 50.785 497.38C51.1183 496.913 51.5917 496.547 52.205 496.28C52.8183 496 53.5183 495.86 54.305 495.86C55.5183 495.86 56.4983 496.167 57.245 496.78C57.9917 497.393 58.3917 498.233 58.445 499.3H56.625C56.585 498.727 56.3517 498.267 55.925 497.92C55.5117 497.573 54.9517 497.4 54.245 497.4C53.5917 497.4 53.0717 497.54 52.685 497.82C52.2983 498.1 52.105 498.467 52.105 498.92C52.105 499.28 52.2183 499.58 52.445 499.82C52.685 500.047 52.9783 500.233 53.325 500.38C53.685 500.513 54.1783 500.667 54.805 500.84C55.5917 501.053 56.2317 501.267 56.725 501.48C57.2183 501.68 57.6383 501.987 57.985 502.4C58.345 502.813 58.5317 503.353 58.545 504.02C58.545 504.62 58.3783 505.16 58.045 505.64C57.7117 506.12 57.2383 506.5 56.625 506.78C56.025 507.047 55.3317 507.18 54.545 507.18ZM65.8942 507.18C64.8676 507.18 63.9342 506.947 63.0942 506.48C62.2676 506.013 61.6142 505.353 61.1342 504.5C60.6676 503.633 60.4342 502.633 60.4342 501.5C60.4342 500.38 60.6742 499.393 61.1542 498.54C61.6476 497.673 62.3142 497.013 63.1542 496.56C63.9942 496.093 64.9342 495.86 65.9742 495.86C67.0142 495.86 67.9542 496.093 68.7942 496.56C69.6342 497.013 70.2942 497.667 70.7742 498.52C71.2676 499.373 71.5142 500.367 71.5142 501.5C71.5142 502.633 71.2609 503.633 70.7542 504.5C70.2609 505.353 69.5876 506.013 68.7342 506.48C67.8809 506.947 66.9342 507.18 65.8942 507.18ZM65.8942 505.58C66.5476 505.58 67.1609 505.427 67.7342 505.12C68.3076 504.813 68.7676 504.353 69.1142 503.74C69.4742 503.127 69.6542 502.38 69.6542 501.5C69.6542 500.62 69.4809 499.873 69.1342 499.26C68.7876 498.647 68.3342 498.193 67.7742 497.9C67.2142 497.593 66.6076 497.44 65.9542 497.44C65.2876 497.44 64.6742 497.593 64.1142 497.9C63.5676 498.193 63.1276 498.647 62.7942 499.26C62.4609 499.873 62.2942 500.62 62.2942 501.5C62.2942 502.393 62.4542 503.147 62.7742 503.76C63.1076 504.373 63.5476 504.833 64.0942 505.14C64.6409 505.433 65.2409 505.58 65.8942 505.58ZM75.7272 497.82C76.0472 497.193 76.5005 496.707 77.0872 496.36C77.6872 496.013 78.4139 495.84 79.2672 495.84V497.72H78.7872C76.7472 497.72 75.7272 498.827 75.7272 501.04V507H73.9072V496.04H75.7272V497.82ZM85.2481 507.18C84.4081 507.18 83.6548 507.04 82.9881 506.76C82.3215 506.467 81.7948 506.067 81.4081 505.56C81.0215 505.04 80.8081 504.447 80.7681 503.78H82.6481C82.7015 504.327 82.9548 504.773 83.4081 505.12C83.8748 505.467 84.4815 505.64 85.2281 505.64C85.9215 505.64 86.4681 505.487 86.8681 505.18C87.2681 504.873 87.4681 504.487 87.4681 504.02C87.4681 503.54 87.2548 503.187 86.8281 502.96C86.4015 502.72 85.7415 502.487 84.8481 502.26C84.0348 502.047 83.3681 501.833 82.8481 501.62C82.3415 501.393 81.9015 501.067 81.5281 500.64C81.1681 500.2 80.9881 499.627 80.9881 498.92C80.9881 498.36 81.1548 497.847 81.4881 497.38C81.8215 496.913 82.2948 496.547 82.9081 496.28C83.5215 496 84.2215 495.86 85.0081 495.86C86.2215 495.86 87.2015 496.167 87.9481 496.78C88.6948 497.393 89.0948 498.233 89.1481 499.3H87.3281C87.2881 498.727 87.0548 498.267 86.6281 497.92C86.2148 497.573 85.6548 497.4 84.9481 497.4C84.2948 497.4 83.7748 497.54 83.3881 497.82C83.0015 498.1 82.8081 498.467 82.8081 498.92C82.8081 499.28 82.9215 499.58 83.1481 499.82C83.3881 500.047 83.6815 500.233 84.0281 500.38C84.3881 500.513 84.8815 500.667 85.5081 500.84C86.2948 501.053 86.9348 501.267 87.4281 501.48C87.9215 501.68 88.3415 501.987 88.6881 502.4C89.0481 502.813 89.2348 503.353 89.2481 504.02C89.2481 504.62 89.0815 505.16 88.7481 505.64C88.4148 506.12 87.9415 506.5 87.3281 506.78C86.7281 507.047 86.0348 507.18 85.2481 507.18Z" fill="#818181"/>
<path d="M1.209 202.753C1.91167 202.195 2.232 201.937 2.17 201.978C4.19533 200.304 5.78667 198.93 6.944 197.855C8.122 196.78 9.114 195.654 9.92 194.476C10.726 193.298 11.129 192.151 11.129 191.035C11.129 190.188 10.9327 189.526 10.54 189.051C10.1473 188.576 9.55833 188.338 8.773 188.338C7.98767 188.338 7.36767 188.638 6.913 189.237C6.479 189.816 6.262 190.642 6.262 191.717H1.147C1.18833 189.96 1.56033 188.493 2.263 187.315C2.98633 186.137 3.92667 185.269 5.084 184.711C6.262 184.153 7.564 183.874 8.99 183.874C11.4493 183.874 13.299 184.504 14.539 185.765C15.7997 187.026 16.43 188.669 16.43 190.694C16.43 192.905 15.6757 194.962 14.167 196.863C12.6583 198.744 10.7363 200.583 8.401 202.381H16.771V206.69H1.209V202.753ZM19.105 195.375C19.105 191.82 19.787 189.02 21.151 186.974C22.5356 184.928 24.7573 183.905 27.816 183.905C30.8746 183.905 33.086 184.928 34.45 186.974C35.8346 189.02 36.527 191.82 36.527 195.375C36.527 198.971 35.8346 201.792 34.45 203.838C33.086 205.884 30.8746 206.907 27.816 206.907C24.7573 206.907 22.5356 205.884 21.151 203.838C19.787 201.792 19.105 198.971 19.105 195.375ZM31.319 195.375C31.319 193.288 31.0916 191.686 30.637 190.57C30.1823 189.433 29.242 188.865 27.816 188.865C26.39 188.865 25.4496 189.433 24.995 190.57C24.5403 191.686 24.313 193.288 24.313 195.375C24.313 196.78 24.3956 197.948 24.561 198.878C24.7263 199.787 25.057 200.531 25.553 201.11C26.0696 201.668 26.824 201.947 27.816 201.947C28.808 201.947 29.552 201.668 30.048 201.11C30.5646 200.531 30.9056 199.787 31.071 198.878C31.2363 197.948 31.319 196.78 31.319 195.375ZM38.8936 190.074C38.8936 188.4 39.369 187.108 40.3196 186.199C41.291 185.29 42.5413 184.835 44.0706 184.835C45.6 184.835 46.84 185.29 47.7906 186.199C48.7413 187.108 49.2166 188.4 49.2166 190.074C49.2166 191.748 48.7413 193.04 47.7906 193.949C46.84 194.858 45.6 195.313 44.0706 195.313C42.5413 195.313 41.291 194.858 40.3196 193.949C39.369 193.04 38.8936 191.748 38.8936 190.074ZM59.9426 185.176L48.0076 207H42.8926L54.8276 185.176H59.9426ZM44.0396 187.935C43.0476 187.935 42.5516 188.648 42.5516 190.074C42.5516 191.479 43.0476 192.182 44.0396 192.182C44.515 192.182 44.887 192.006 45.1556 191.655C45.4243 191.304 45.5586 190.777 45.5586 190.074C45.5586 188.648 45.0523 187.935 44.0396 187.935ZM53.6496 202.102C53.6496 200.428 54.125 199.136 55.0756 198.227C56.0263 197.318 57.2663 196.863 58.7956 196.863C60.325 196.863 61.565 197.318 62.5156 198.227C63.4663 199.136 63.9416 200.428 63.9416 202.102C63.9416 203.776 63.4663 205.068 62.5156 205.977C61.565 206.886 60.325 207.341 58.7956 207.341C57.2663 207.341 56.0263 206.886 55.0756 205.977C54.125 205.068 53.6496 203.776 53.6496 202.102ZM58.7646 199.963C58.2893 199.963 57.9173 200.139 57.6486 200.49C57.4006 200.841 57.2766 201.379 57.2766 202.102C57.2766 203.507 57.7726 204.21 58.7646 204.21C59.24 204.21 59.612 204.034 59.8806 203.683C60.1493 203.332 60.2836 202.805 60.2836 202.102C60.2836 201.399 60.1493 200.872 59.8806 200.521C59.612 200.149 59.24 199.963 58.7646 199.963Z" fill="white"/>
<path d="M5.96 235.14C5.04 235.14 4.21333 234.98 3.48 234.66C2.76 234.327 2.19333 233.873 1.78 233.3C1.36667 232.713 1.15333 232.04 1.14 231.28H3.08C3.14667 231.933 3.41333 232.487 3.88 232.94C4.36 233.38 5.05333 233.6 5.96 233.6C6.82667 233.6 7.50667 233.387 8 232.96C8.50667 232.52 8.76 231.96 8.76 231.28C8.76 230.747 8.61333 230.313 8.32 229.98C8.02667 229.647 7.66 229.393 7.22 229.22C6.78 229.047 6.18667 228.86 5.44 228.66C4.52 228.42 3.78 228.18 3.22 227.94C2.67333 227.7 2.2 227.327 1.8 226.82C1.41333 226.3 1.22 225.607 1.22 224.74C1.22 223.98 1.41333 223.307 1.8 222.72C2.18667 222.133 2.72667 221.68 3.42 221.36C4.12667 221.04 4.93333 220.88 5.84 220.88C7.14667 220.88 8.21333 221.207 9.04 221.86C9.88 222.513 10.3533 223.38 10.46 224.46H8.46C8.39333 223.927 8.11333 223.46 7.62 223.06C7.12667 222.647 6.47333 222.44 5.66 222.44C4.9 222.44 4.28 222.64 3.8 223.04C3.32 223.427 3.08 223.973 3.08 224.68C3.08 225.187 3.22 225.6 3.5 225.92C3.79333 226.24 4.14667 226.487 4.56 226.66C4.98667 226.82 5.58 227.007 6.34 227.22C7.26 227.473 8 227.727 8.56 227.98C9.12 228.22 9.6 228.6 10 229.12C10.4 229.627 10.6 230.32 10.6 231.2C10.6 231.88 10.42 232.52 10.06 233.12C9.7 233.72 9.16667 234.207 8.46 234.58C7.75333 234.953 6.92 235.14 5.96 235.14ZM15.4983 225.54V232C15.4983 232.533 15.6116 232.913 15.8383 233.14C16.0649 233.353 16.4583 233.46 17.0183 233.46H18.3583V235H16.7183C15.7049 235 14.9449 234.767 14.4383 234.3C13.9316 233.833 13.6783 233.067 13.6783 232V225.54H12.2583V224.04H13.6783V221.28H15.4983V224.04H18.3583V225.54H15.4983ZM19.8834 229.48C19.8834 228.36 20.1101 227.38 20.5634 226.54C21.0168 225.687 21.6368 225.027 22.4234 224.56C23.2234 224.093 24.1101 223.86 25.0834 223.86C26.0434 223.86 26.8768 224.067 27.5834 224.48C28.2901 224.893 28.8168 225.413 29.1634 226.04V224.04H31.0034V235H29.1634V232.96C28.8034 233.6 28.2634 234.133 27.5434 234.56C26.8368 234.973 26.0101 235.18 25.0634 235.18C24.0901 235.18 23.2101 234.94 22.4234 234.46C21.6368 233.98 21.0168 233.307 20.5634 232.44C20.1101 231.573 19.8834 230.587 19.8834 229.48ZM29.1634 229.5C29.1634 228.673 28.9968 227.953 28.6634 227.34C28.3301 226.727 27.8768 226.26 27.3034 225.94C26.7434 225.607 26.1234 225.44 25.4434 225.44C24.7634 225.44 24.1434 225.6 23.5834 225.92C23.0234 226.24 22.5768 226.707 22.2434 227.32C21.9101 227.933 21.7434 228.653 21.7434 229.48C21.7434 230.32 21.9101 231.053 22.2434 231.68C22.5768 232.293 23.0234 232.767 23.5834 233.1C24.1434 233.42 24.7634 233.58 25.4434 233.58C26.1234 233.58 26.7434 233.42 27.3034 233.1C27.8768 232.767 28.3301 232.293 28.6634 231.68C28.9968 231.053 29.1634 230.327 29.1634 229.5ZM40.1991 235L35.8991 230.16V235H34.0791V220.2H35.8991V228.9L40.1191 224.04H42.6591L37.4991 229.5L42.6791 235H40.1991ZM45.312 222.26C44.9654 222.26 44.672 222.14 44.432 221.9C44.192 221.66 44.072 221.367 44.072 221.02C44.072 220.673 44.192 220.38 44.432 220.14C44.672 219.9 44.9654 219.78 45.312 219.78C45.6454 219.78 45.9254 219.9 46.152 220.14C46.392 220.38 46.512 220.673 46.512 221.02C46.512 221.367 46.392 221.66 46.152 221.9C45.9254 222.14 45.6454 222.26 45.312 222.26ZM46.192 224.04V235H44.372V224.04H46.192ZM54.6339 223.84C55.9672 223.84 57.0472 224.247 57.8739 225.06C58.7006 225.86 59.1139 227.02 59.1139 228.54V235H57.3139V228.8C57.3139 227.707 57.0406 226.873 56.4939 226.3C55.9472 225.713 55.2006 225.42 54.2539 225.42C53.2939 225.42 52.5272 225.72 51.9539 226.32C51.3939 226.92 51.1139 227.793 51.1139 228.94V235H49.2939V224.04H51.1139V225.6C51.4739 225.04 51.9606 224.607 52.5739 224.3C53.2006 223.993 53.8872 223.84 54.6339 223.84ZM66.6069 223.86C67.5535 223.86 68.3802 224.067 69.0869 224.48C69.8069 224.893 70.3402 225.413 70.6869 226.04V224.04H72.5269V235.24C72.5269 236.24 72.3135 237.127 71.8869 237.9C71.4602 238.687 70.8469 239.3 70.0469 239.74C69.2602 240.18 68.3402 240.4 67.2869 240.4C65.8469 240.4 64.6469 240.06 63.6869 239.38C62.7269 238.7 62.1602 237.773 61.9869 236.6H63.7869C63.9869 237.267 64.4002 237.8 65.0269 238.2C65.6535 238.613 66.4069 238.82 67.2869 238.82C68.2869 238.82 69.1002 238.507 69.7269 237.88C70.3669 237.253 70.6869 236.373 70.6869 235.24V232.94C70.3269 233.58 69.7935 234.113 69.0869 234.54C68.3802 234.967 67.5535 235.18 66.6069 235.18C65.6335 235.18 64.7469 234.94 63.9469 234.46C63.1602 233.98 62.5402 233.307 62.0869 232.44C61.6335 231.573 61.4069 230.587 61.4069 229.48C61.4069 228.36 61.6335 227.38 62.0869 226.54C62.5402 225.687 63.1602 225.027 63.9469 224.56C64.7469 224.093 65.6335 223.86 66.6069 223.86ZM70.6869 229.5C70.6869 228.673 70.5202 227.953 70.1869 227.34C69.8535 226.727 69.4002 226.26 68.8269 225.94C68.2669 225.607 67.6469 225.44 66.9669 225.44C66.2869 225.44 65.6669 225.6 65.1069 225.92C64.5469 226.24 64.1002 226.707 63.7669 227.32C63.4335 227.933 63.2669 228.653 63.2669 229.48C63.2669 230.32 63.4335 231.053 63.7669 231.68C64.1002 232.293 64.5469 232.767 65.1069 233.1C65.6669 233.42 66.2869 233.58 66.9669 233.58C67.6469 233.58 68.2669 233.42 68.8269 233.1C69.4002 232.767 69.8535 232.293 70.1869 231.68C70.5202 231.053 70.6869 230.327 70.6869 229.5Z" fill="#818181"/>
<path d="M180.837 13.299V8.37H189.424V31H183.906V13.299H180.837ZM193.05 19.375C193.05 15.8203 193.732 13.02 195.096 10.974C196.481 8.928 198.703 7.905 201.761 7.905C204.82 7.905 207.031 8.928 208.395 10.974C209.78 13.02 210.472 15.8203 210.472 19.375C210.472 22.971 209.78 25.792 208.395 27.838C207.031 29.884 204.82 30.907 201.761 30.907C198.703 30.907 196.481 29.884 195.096 27.838C193.732 25.792 193.05 22.971 193.05 19.375ZM205.264 19.375C205.264 17.2877 205.037 15.686 204.582 14.57C204.128 13.4333 203.187 12.865 201.761 12.865C200.335 12.865 199.395 13.4333 198.94 14.57C198.486 15.686 198.258 17.2877 198.258 19.375C198.258 20.7803 198.341 21.948 198.506 22.878C198.672 23.7873 199.002 24.5313 199.498 25.11C200.015 25.668 200.769 25.947 201.761 25.947C202.753 25.947 203.497 25.668 203.993 25.11C204.51 24.5313 204.851 23.7873 205.016 22.878C205.182 21.948 205.264 20.7803 205.264 19.375ZM212.839 14.074C212.839 12.4 213.314 11.1083 214.265 10.199C215.236 9.28967 216.487 8.835 218.016 8.835C219.545 8.835 220.785 9.28967 221.736 10.199C222.687 11.1083 223.162 12.4 223.162 14.074C223.162 15.748 222.687 17.0397 221.736 17.949C220.785 18.8583 219.545 19.313 218.016 19.313C216.487 19.313 215.236 18.8583 214.265 17.949C213.314 17.0397 212.839 15.748 212.839 14.074ZM233.888 9.176L221.953 31H216.838L228.773 9.176H233.888ZM217.985 11.935C216.993 11.935 216.497 12.648 216.497 14.074C216.497 15.4793 216.993 16.182 217.985 16.182C218.46 16.182 218.832 16.0063 219.101 15.655C219.37 15.3037 219.504 14.7767 219.504 14.074C219.504 12.648 218.998 11.935 217.985 11.935ZM227.595 26.102C227.595 24.428 228.07 23.1363 229.021 22.227C229.972 21.3177 231.212 20.863 232.741 20.863C234.27 20.863 235.51 21.3177 236.461 22.227C237.412 23.1363 237.887 24.428 237.887 26.102C237.887 27.776 237.412 29.0677 236.461 29.977C235.51 30.8863 234.27 31.341 232.741 31.341C231.212 31.341 229.972 30.8863 229.021 29.977C228.07 29.0677 227.595 27.776 227.595 26.102ZM232.71 23.963C232.235 23.963 231.863 24.1387 231.594 24.49C231.346 24.8413 231.222 25.3787 231.222 26.102C231.222 27.5073 231.718 28.21 232.71 28.21C233.185 28.21 233.557 28.0343 233.826 27.683C234.095 27.3317 234.229 26.8047 234.229 26.102C234.229 25.3993 234.095 24.8723 233.826 24.521C233.557 24.149 233.185 23.963 232.71 23.963Z" fill="white"/>
<path d="M189.78 55.9H183.7L182.58 59H180.66L185.7 45.14H187.8L192.82 59H190.9L189.78 55.9ZM189.26 54.42L186.74 47.38L184.22 54.42H189.26ZM195.957 46.26C195.61 46.26 195.317 46.14 195.077 45.9C194.837 45.66 194.717 45.3667 194.717 45.02C194.717 44.6733 194.837 44.38 195.077 44.14C195.317 43.9 195.61 43.78 195.957 43.78C196.29 43.78 196.57 43.9 196.797 44.14C197.037 44.38 197.157 44.6733 197.157 45.02C197.157 45.3667 197.037 45.66 196.797 45.9C196.57 46.14 196.29 46.26 195.957 46.26ZM196.837 48.04V59H195.017V48.04H196.837ZM201.758 49.82C202.078 49.1933 202.532 48.7067 203.118 48.36C203.718 48.0133 204.445 47.84 205.298 47.84V49.72H204.818C202.778 49.72 201.758 50.8267 201.758 53.04V59H199.938V48.04H201.758V49.82ZM206.719 53.48C206.719 52.36 206.946 51.38 207.399 50.54C207.853 49.6867 208.473 49.0267 209.259 48.56C210.059 48.0933 210.953 47.86 211.939 47.86C212.793 47.86 213.586 48.06 214.319 48.46C215.053 48.8467 215.613 49.36 215.999 50V44.2H217.839V59H215.999V56.94C215.639 57.5933 215.106 58.1333 214.399 58.56C213.693 58.9733 212.866 59.18 211.919 59.18C210.946 59.18 210.059 58.94 209.259 58.46C208.473 57.98 207.853 57.3067 207.399 56.44C206.946 55.5733 206.719 54.5867 206.719 53.48ZM215.999 53.5C215.999 52.6733 215.833 51.9533 215.499 51.34C215.166 50.7267 214.713 50.26 214.139 49.94C213.579 49.6067 212.959 49.44 212.279 49.44C211.599 49.44 210.979 49.6 210.419 49.92C209.859 50.24 209.413 50.7067 209.079 51.32C208.746 51.9333 208.579 52.6533 208.579 53.48C208.579 54.32 208.746 55.0533 209.079 55.68C209.413 56.2933 209.859 56.7667 210.419 57.1C210.979 57.42 211.599 57.58 212.279 57.58C212.959 57.58 213.579 57.42 214.139 57.1C214.713 56.7667 215.166 56.2933 215.499 55.68C215.833 55.0533 215.999 54.3267 215.999 53.5ZM222.735 49.82C223.055 49.1933 223.508 48.7067 224.095 48.36C224.695 48.0133 225.422 47.84 226.275 47.84V49.72H225.795C223.755 49.72 222.735 50.8267 222.735 53.04V59H220.915V48.04H222.735V49.82ZM233.156 59.18C232.129 59.18 231.196 58.9467 230.356 58.48C229.529 58.0133 228.876 57.3533 228.396 56.5C227.929 55.6333 227.696 54.6333 227.696 53.5C227.696 52.38 227.936 51.3933 228.416 50.54C228.909 49.6733 229.576 49.0133 230.416 48.56C231.256 48.0933 232.196 47.86 233.236 47.86C234.276 47.86 235.216 48.0933 236.056 48.56C236.896 49.0133 237.556 49.6667 238.036 50.52C238.529 51.3733 238.776 52.3667 238.776 53.5C238.776 54.6333 238.523 55.6333 238.016 56.5C237.523 57.3533 236.849 58.0133 235.996 58.48C235.143 58.9467 234.196 59.18 233.156 59.18ZM233.156 57.58C233.809 57.58 234.423 57.4267 234.996 57.12C235.569 56.8133 236.029 56.3533 236.376 55.74C236.736 55.1267 236.916 54.38 236.916 53.5C236.916 52.62 236.743 51.8733 236.396 51.26C236.049 50.6467 235.596 50.1933 235.036 49.9C234.476 49.5933 233.869 49.44 233.216 49.44C232.549 49.44 231.936 49.5933 231.376 49.9C230.829 50.1933 230.389 50.6467 230.056 51.26C229.723 51.8733 229.556 52.62 229.556 53.5C229.556 54.3933 229.716 55.1467 230.036 55.76C230.369 56.3733 230.809 56.8333 231.356 57.14C231.903 57.4333 232.503 57.58 233.156 57.58ZM242.989 50.06C243.349 49.4333 243.882 48.9133 244.589 48.5C245.309 48.0733 246.142 47.86 247.089 47.86C248.062 47.86 248.942 48.0933 249.729 48.56C250.529 49.0267 251.156 49.6867 251.609 50.54C252.062 51.38 252.289 52.36 252.289 53.48C252.289 54.5867 252.062 55.5733 251.609 56.44C251.156 57.3067 250.529 57.98 249.729 58.46C248.942 58.94 248.062 59.18 247.089 59.18C246.156 59.18 245.329 58.9733 244.609 58.56C243.902 58.1333 243.362 57.6067 242.989 56.98V64.2H241.169V48.04H242.989V50.06ZM250.429 53.48C250.429 52.6533 250.262 51.9333 249.929 51.32C249.596 50.7067 249.142 50.24 248.569 49.92C248.009 49.6 247.389 49.44 246.709 49.44C246.042 49.44 245.422 49.6067 244.849 49.94C244.289 50.26 243.836 50.7333 243.489 51.36C243.156 51.9733 242.989 52.6867 242.989 53.5C242.989 54.3267 243.156 55.0533 243.489 55.68C243.836 56.2933 244.289 56.7667 244.849 57.1C245.422 57.42 246.042 57.58 246.709 57.58C247.389 57.58 248.009 57.42 248.569 57.1C249.142 56.7667 249.596 56.2933 249.929 55.68C250.262 55.0533 250.429 54.32 250.429 53.48Z" fill="#818181"/>
<defs>
<radialGradient id="paint0_radial_41_237" cx="0" cy="0" r="1" gradientUnits="userSpaceOnUse" gradientTransform="translate(339.711 344.794) rotate(90) scale(205.916 205.47)">
<stop offset="0.71875" stop-color="#FD2900" stop-opacity="0"/>
<stop offset="1" stop-color="#FF421D" stop-opacity="0.58"/>
</radialGradient>
</defs>
</svg>
